<svg width="28" height="24" viewBox="0 0 28 24" fill="none" xmlns="http://www.w3.org/2000/svg">
<path d="M27.3334 1.34668C26 2.00002 24.6934 2.26535 23.3334 2.66668C21.8387 0.980018 19.6227 0.886684 17.4934 1.68402C15.364 2.48135 13.9694 4.43068 14 6.66668V8.00002C9.67335 8.11068 5.82002 6.14002 3.33335 2.66668C3.33335 2.66668 -2.24265 12.5773 8.66669 17.3333C6.17069 18.996 3.68135 20.1173 0.666687 20C5.07735 22.404 9.88402 23.2307 14.0454 22.0227C18.8187 20.636 22.7414 17.0587 24.2467 11.7C24.6958 10.0703 24.9187 8.3865 24.9094 6.69602C24.9094 6.36402 26.9227 3.00135 27.3334 1.34668Z" stroke="black" stroke-width="1.2" stroke-linecap="round" stroke-linejoin="round"/>
</svg>
